<svg xmlns="http://www.w3.org/2000/svg" xmlns:xlink="http://www.w3.org/1999/xlink" version="1.1" width="1000" height="1000" viewBox="0 0 1000 1000" xml:space="preserve">
<desc>Created with Fabric.js 3.5.0</desc>
<defs>
</defs>
<rect x="0" y="0" width="100%" height="100%" fill="rgba(255,255,255,0)"/>
<g transform="matrix(-0.8909 0 0 0.8909 500.0125 500.0176)" id="670314">
<g style="" vector-effect="non-scaling-stroke">
		<g transform="matrix(1 0 0 1 70.976 -249.231)">
<path style="stroke: none; stroke-width: 1; stroke-dasharray: none; stroke-linecap: butt; stroke-dashoffset: 0; stroke-linejoin: miter; stroke-miterlimit: 4; is-custom-font: none; font-file-url: none; fill: rgb(35,31,32); fill-rule: nonzero; opacity: 1;" transform=" translate(-467.826, -312.019)" d="m 467.85 344.25 c 17.784 0 32.207 -14.471 32.207 -32.255 s -14.422 -32.207 -32.207 -32.207 c -17.833 0 -32.255 14.422 -32.255 32.207 c 0 17.784 14.422 32.255 32.255 32.255" stroke-linecap="round"/>
</g>
		<g transform="matrix(1 0 0 1 -26.3587 -70.4185)">
<path style="stroke: none; stroke-width: 1; stroke-dasharray: none; stroke-linecap: butt; stroke-dashoffset: 0; stroke-linejoin: miter; stroke-miterlimit: 4; is-custom-font: none; font-file-url: none; fill: rgb(35,31,32); fill-rule: nonzero; opacity: 1;" transform=" translate(-370.4913, -490.8315)" d="m 356.85 368.17 l -50.137 57.933 c -2.972 3.654 -7.455 5.896 -12.522 5.896 c -8.965 0 -16.225 -7.26 -16.225 -16.177 c 0 -4.872 2.095 -9.209 5.457 -12.181 l 54.084 -62.269 c 2.972 -3.557 7.455 -5.847 12.522 -5.847 l 78.251 -0.049 c 5.75 0 10.914 2.339 14.715 5.993 l 49.893 49.894 l 41.367 -41.27 c 2.924 -2.485 6.676 -3.947 10.768 -3.947 c 9.258 0 16.713 7.504 16.713 16.762 c 0 4.044 -1.365 7.698 -3.752 10.622 l -49.845 50.234 c -15.153 15.105 -27.334 2.29 -27.334 2.29 l -30.599 -30.745 l -47.798 55.302 l 43.803 43.803 s 9.257 8.576 3.946 25.629 l -24.557 109.48 c -1.949 9.502 -10.329 16.664 -20.366 16.664 c -11.548 0 -20.854 -9.355 -20.854 -20.854 c 0 -1.851 0.19501 -3.605 0.633 -5.262 l 20.221 -89.799 l -49.797 -48.383 l -42.828 47.75 s -6.919 8.527 -25.288 7.893 l -86.875 0.146 c -9.696 0.14703 -18.515 -6.48 -20.659 -16.322 c -2.583 -11.207 4.336 -22.219 15.591 -24.703 c 1.755 -0.38998 3.509 -0.53601 5.214 -0.48801 l 74.694 0.195 l 110.46 -128.05 l -28.894 -0.146 z" stroke-linecap="round"/>
</g>
</g>
</g>
</svg>